<svg width="18" height="11" viewBox="0 0 18 11" fill="none" xmlns="http://www.w3.org/2000/svg">
<path d="M0.926743 1.57331L0.926756 1.57329L1.2803 1.21971C1.28031 1.2197 1.28031 1.2197 1.28032 1.21969C1.37794 1.12208 1.53621 1.12208 1.63385 1.21971C1.63385 1.21971 1.63385 1.21971 1.63385 1.21971L8.39641 7.98231L8.74996 8.33587L9.10352 7.98231L15.8661 1.21971C15.9638 1.12207 16.122 1.12207 16.2196 1.21971L16.5732 1.57331C16.6708 1.67095 16.6708 1.82917 16.5732 1.92681L8.92671 9.57331C8.82907 9.67094 8.67085 9.67094 8.57322 9.57331L0.926743 1.92681C0.926741 1.92681 0.926739 1.92681 0.926737 1.92681C0.829107 1.82917 0.829109 1.67094 0.926743 1.57331Z" fill="#152550" stroke="black"/>
</svg>
