<svg width="11" height="18" viewBox="0 0 11 18" fill="none" xmlns="http://www.w3.org/2000/svg">
<path d="M1.57331 16.5733L1.57329 16.5732L1.21971 16.2197C1.2197 16.2197 1.2197 16.2197 1.21969 16.2197C1.12208 16.1221 1.12208 15.9638 1.21971 15.8662C1.21971 15.8662 1.21971 15.8662 1.21971 15.8661L7.98231 9.10359L8.33587 8.75004L7.98231 8.39648L1.21971 1.63388C1.12208 1.53625 1.12208 1.37803 1.21971 1.28039L1.57331 0.92679C1.67095 0.829151 1.82917 0.829151 1.92681 0.92679L9.57331 8.57329C9.67094 8.67093 9.67094 8.82915 9.57331 8.92678L1.92681 16.5733C1.92681 16.5733 1.92681 16.5733 1.92681 16.5733C1.82917 16.6709 1.67094 16.6709 1.57331 16.5733Z" fill="#152550" stroke="#9E8A4D"/>
</svg>
