<svg width="11" height="18" viewBox="0 0 11 18" fill="none" xmlns="http://www.w3.org/2000/svg">
<path d="M9.21966 0.926743L9.21968 0.926756L9.57326 1.2803C9.57327 1.28031 9.57327 1.28031 9.57328 1.28032C9.67089 1.37794 9.67089 1.53621 9.57326 1.63385C9.57326 1.63385 9.57326 1.63385 9.57326 1.63385L2.81066 8.39641L2.4571 8.74996L2.81066 9.10352L9.57326 15.8661C9.67089 15.9638 9.67089 16.122 9.57326 16.2196L9.21966 16.5732C9.12202 16.6708 8.9638 16.6708 8.86616 16.5732L1.21966 8.92671C1.12203 8.82907 1.12203 8.67085 1.21966 8.57322L8.86616 0.926742C8.86616 0.926741 8.86616 0.926739 8.86616 0.926737C8.9638 0.829107 9.12203 0.829108 9.21966 0.926743Z" fill="#152550" stroke="black"/>
</svg>
