<svg width="21" height="20" viewBox="0 0 21 20" fill="none" xmlns="http://www.w3.org/2000/svg">
<path opacity="0.5" fill-rule="evenodd" clip-rule="evenodd" d="M10.4997 3.57139C9.65551 3.57139 8.81956 3.73767 8.03961 4.06074C7.25966 4.38381 6.55098 4.85733 5.95403 5.45428C5.35709 6.05123 4.88356 6.75991 4.5605 7.53986C4.23743 8.31981 4.07115 9.15575 4.07115 9.99996C4.07115 10.8442 4.23743 11.6801 4.5605 12.4601C4.88356 13.24 5.35709 13.9487 5.95403 14.5457C6.55098 15.1426 7.25966 15.6161 8.03961 15.9392C8.81956 16.2623 9.65551 16.4285 10.4997 16.4285C12.2047 16.4285 13.8398 15.7512 15.0454 14.5457C16.251 13.3401 16.9283 11.7049 16.9283 9.99996C16.9283 8.295 16.251 6.65987 15.0454 5.45428C13.8398 4.24869 12.2047 3.57139 10.4997 3.57139ZM2.64258 9.99996C2.64258 5.66068 6.16044 2.14282 10.4997 2.14282C14.839 2.14282 18.3569 5.66068 18.3569 9.99996C18.3569 14.3392 14.839 17.8571 10.4997 17.8571C6.16044 17.8571 2.64258 14.3392 2.64258 9.99996Z" fill="#101C3D"/>
<path d="M12.851 6.6377L7.13672 12.352L8.14672 13.362L13.861 7.6477L12.851 6.6377Z" fill="#101C3D"/>
<path d="M8.14672 6.6377L13.861 12.352L12.851 13.362L7.13672 7.6477L8.14672 6.6377Z" fill="#101C3D"/>
</svg>
