<svg width="20" height="20" viewBox="0 0 20 20" fill="none" xmlns="http://www.w3.org/2000/svg">
<path d="M5.5 17.875C5.0875 17.875 4.7345 17.7282 4.441 17.4347C4.1475 17.1412 4.0005 16.788 4 16.375V8.875C4 8.4625 4.147 8.1095 4.441 7.816C4.735 7.5225 5.088 7.3755 5.5 7.375H6.25V5.875C6.25 4.8375 6.61575 3.95325 7.34725 3.22225C8.07875 2.49125 8.963 2.1255 10 2.125C11.037 2.1245 11.9215 2.49025 12.6535 3.22225C13.3855 3.95425 13.751 4.8385 13.75 5.875V7.375H14.5C14.9125 7.375 15.2657 7.522 15.5597 7.816C15.8537 8.11 16.0005 8.463 16 8.875V16.375C16 16.7875 15.8532 17.1407 15.5597 17.4347C15.2662 17.7287 14.913 17.8755 14.5 17.875H5.5ZM5.5 16.375H14.5V8.875H5.5V16.375ZM10 14.125C10.4125 14.125 10.7657 13.9782 11.0597 13.6847C11.3537 13.3912 11.5005 13.038 11.5 12.625C11.4995 12.212 11.3527 11.859 11.0597 11.566C10.7667 11.273 10.4135 11.126 10 11.125C9.5865 11.124 9.2335 11.271 8.941 11.566C8.6485 11.861 8.5015 12.214 8.5 12.625C8.4985 13.036 8.6455 13.3892 8.941 13.6847C9.2365 13.9802 9.5895 14.127 10 14.125ZM7.75 7.375H12.25V5.875C12.25 5.25 12.0312 4.71875 11.5937 4.28125C11.1562 3.84375 10.625 3.625 10 3.625C9.375 3.625 8.84375 3.84375 8.40625 4.28125C7.96875 4.71875 7.75 5.25 7.75 5.875V7.375Z" fill="#101C3D"/>
</svg>
