<svg width="17" height="16" viewBox="0 0 17 16" fill="none" xmlns="http://www.w3.org/2000/svg">
<path opacity="0.1" fill-rule="evenodd" clip-rule="evenodd" d="M8.33268 2.66683C6.91819 2.66683 5.56164 3.22873 4.56145 4.22893C3.56125 5.22912 2.99935 6.58567 2.99935 8.00016C2.99935 9.41465 3.56125 10.7712 4.56145 11.7714C5.56164 12.7716 6.91819 13.3335 8.33268 13.3335C9.74717 13.3335 11.1037 12.7716 12.1039 11.7714C13.1041 10.7712 13.666 9.41465 13.666 8.00016C13.666 6.58567 13.1041 5.22912 12.1039 4.22893C11.1037 3.22873 9.74717 2.66683 8.33268 2.66683ZM1.66602 8.00016C1.66602 4.31816 4.65068 1.3335 8.33268 1.3335C12.0147 1.3335 14.9993 4.31816 14.9993 8.00016C14.9993 11.6822 12.0147 14.6668 8.33268 14.6668C4.65068 14.6668 1.66602 11.6822 1.66602 8.00016Z" fill="black"/>
<path fill-rule="evenodd" clip-rule="evenodd" d="M8.33234 2.66684C6.9573 2.66407 5.63488 3.19515 4.64367 4.14817C4.58046 4.20875 4.50594 4.25629 4.42436 4.28808C4.34278 4.31986 4.25573 4.33526 4.1682 4.3334C4.08066 4.33155 3.99435 4.31247 3.91419 4.27725C3.83403 4.24204 3.76159 4.19138 3.70101 4.12817C3.64042 4.06496 3.59288 3.99044 3.5611 3.90886C3.52932 3.82727 3.51392 3.74023 3.51578 3.6527C3.51763 3.56516 3.53671 3.47885 3.57193 3.39869C3.60714 3.31853 3.6578 3.24609 3.72101 3.1855C4.96047 1.99458 6.61346 1.3307 8.33234 1.3335C8.50915 1.3335 8.67872 1.40374 8.80375 1.52877C8.92877 1.65379 8.99901 1.82336 8.99901 2.00017C8.99901 2.17698 8.92877 2.34655 8.80375 2.47158C8.67872 2.5966 8.50915 2.66684 8.33234 2.66684Z" fill="black"/>
</svg>
