<svg width="66" height="66" viewBox="0 0 66 66" fill="none" xmlns="http://www.w3.org/2000/svg">
<g clip-path="url(#clip0_396_2990)">
<path d="M17.5312 29.9062C16.7107 29.9063 15.9238 30.2322 15.3436 30.8124C14.7634 31.3926 14.4375 32.1795 14.4375 33C14.4375 33.8205 14.7634 34.6074 15.3436 35.1876C15.9238 35.7678 16.7107 36.0938 17.5312 36.0938H48.4688C49.2893 36.0938 50.0762 35.7678 50.6564 35.1876C51.2365 34.6074 51.5625 33.8205 51.5625 33C51.5625 32.1795 51.2365 31.3926 50.6564 30.8124C50.0762 30.2322 49.2893 29.9063 48.4688 29.9062H17.5312Z" fill="black"/>
<path d="M66 33C66 41.7521 62.5232 50.1458 56.3345 56.3345C50.1458 62.5232 41.7521 66 33 66C24.2479 66 15.8542 62.5232 9.66548 56.3345C3.47678 50.1458 0 41.7521 0 33C0 24.2479 3.47678 15.8542 9.66548 9.66548C15.8542 3.47678 24.2479 0 33 0C41.7521 0 50.1458 3.47678 56.3345 9.66548C62.5232 15.8542 66 24.2479 66 33ZM59.8125 33C59.8125 25.8889 56.9876 19.069 51.9593 14.0407C46.931 9.01238 40.1111 6.1875 33 6.1875C25.8889 6.1875 19.069 9.01238 14.0407 14.0407C9.01238 19.069 6.1875 25.8889 6.1875 33C6.1875 40.1111 9.01238 46.931 14.0407 51.9593C19.069 56.9876 25.8889 59.8125 33 59.8125C40.1111 59.8125 46.931 56.9876 51.9593 51.9593C56.9876 46.931 59.8125 40.1111 59.8125 33Z" fill="black"/>
</g>
<defs>
<clipPath id="clip0_396_2990">
<rect width="66" height="66" fill="white"/>
</clipPath>
</defs>
</svg>
