<svg width="60" height="60" viewBox="0 0 60 60" fill="none" xmlns="http://www.w3.org/2000/svg">
<rect x="2" y="2" width="56" height="56" rx="28" stroke="#101C3D" stroke-width="4"/>
<path d="M31.4795 33.8643H27.5098C27.5098 32.9951 27.5732 32.2383 27.7002 31.5938C27.8369 30.9395 28.0615 30.3535 28.374 29.8359C28.6865 29.3086 29.1064 28.8057 29.6338 28.3271C30.0928 27.9268 30.4932 27.5508 30.835 27.1992C31.1768 26.8379 31.4404 26.4668 31.626 26.0859C31.8115 25.7051 31.9043 25.29 31.9043 24.8408C31.9043 24.3037 31.8213 23.8643 31.6553 23.5225C31.499 23.1709 31.2646 22.9072 30.9521 22.7314C30.6494 22.5459 30.2686 22.4531 29.8096 22.4531C29.4287 22.4531 29.0723 22.541 28.7402 22.7168C28.4082 22.8828 28.1396 23.1465 27.9346 23.5078C27.7295 23.8691 27.6172 24.3428 27.5977 24.9287H22.998C23.0273 23.5322 23.3447 22.3896 23.9502 21.501C24.5557 20.6025 25.3662 19.9434 26.3818 19.5234C27.4072 19.0938 28.5498 18.8789 29.8096 18.8789C31.2061 18.8789 32.4023 19.0986 33.3984 19.5381C34.4043 19.9775 35.1709 20.627 35.6982 21.4863C36.2354 22.3457 36.5039 23.3955 36.5039 24.6357C36.5039 25.4854 36.3428 26.2324 36.0205 26.877C35.6982 27.5117 35.2686 28.1074 34.7314 28.6641C34.1943 29.2109 33.5986 29.7822 32.9443 30.3779C32.3877 30.876 32.0068 31.3936 31.8018 31.9307C31.5967 32.458 31.4893 33.1025 31.4795 33.8643ZM26.9824 38.3467C26.9824 37.6924 27.2168 37.1406 27.6855 36.6914C28.1641 36.2422 28.7842 36.0176 29.5459 36.0176C30.3076 36.0176 30.9229 36.2422 31.3916 36.6914C31.8604 37.1406 32.0947 37.6924 32.0947 38.3467C32.0947 39.0107 31.8604 39.5674 31.3916 40.0166C30.9229 40.4561 30.3076 40.6758 29.5459 40.6758C28.7842 40.6758 28.1641 40.4561 27.6855 40.0166C27.2168 39.5674 26.9824 39.0107 26.9824 38.3467Z" fill="#101C3D"/>
</svg>
