<svg width="17" height="19" viewBox="0 0 17 19" fill="none" xmlns="http://www.w3.org/2000/svg">
<path d="M1 4.77778H16M6.625 8.55556V14.2222M10.375 8.55556V14.2222M1.9375 4.77778L2.875 16.1111C2.875 16.6121 3.07254 17.0925 3.42417 17.4468C3.77581 17.801 4.25272 18 4.75 18H12.25C12.7473 18 13.2242 17.801 13.5758 17.4468C13.9275 17.0925 14.125 16.6121 14.125 16.1111L15.0625 4.77778M5.6875 4.77778V1.94444C5.6875 1.69396 5.78627 1.45374 5.96209 1.27662C6.1379 1.0995 6.37636 1 6.625 1H10.375C10.6236 1 10.8621 1.0995 11.0379 1.27662C11.2137 1.45374 11.3125 1.69396 11.3125 1.94444V4.77778" stroke="#B3261E" stroke-width="1.5" stroke-linecap="round" stroke-linejoin="round"/>
</svg>
