<svg width="24" height="24" viewBox="0 0 24 24" fill="none" xmlns="http://www.w3.org/2000/svg">
<path fill-rule="evenodd" clip-rule="evenodd" d="M12 3C11.7613 3 11.5324 3.09482 11.3636 3.2636C11.1948 3.43239 11.1 3.66131 11.1 3.9C11.1 4.13869 11.1948 4.36761 11.3636 4.5364C11.5324 4.70518 11.7613 4.8 12 4.8C13.5854 4.80031 15.1263 5.32386 16.3837 6.2894C17.6411 7.25495 18.5447 8.6085 18.9542 10.14C19.3637 11.6716 19.2563 13.2955 18.6487 14.7597C18.041 16.224 16.9671 17.4468 15.5935 18.2383C14.2199 19.0299 12.6234 19.3459 11.0518 19.1375C9.48024 18.929 8.0214 18.2077 6.90165 17.0854C5.78191 15.9631 5.06388 14.5026 4.85898 12.9306C4.65407 11.3585 4.97375 9.76281 5.76841 8.391L6.86371 9.4863C6.98957 9.61213 7.14992 9.69781 7.32448 9.73252C7.49904 9.76724 7.67997 9.74941 7.84439 9.68131C8.00882 9.61321 8.14937 9.49788 8.24827 9.34991C8.34716 9.20194 8.39997 9.02798 8.40001 8.85V5.25C8.40001 5.01131 8.30518 4.78239 8.1364 4.6136C7.96762 4.44482 7.7387 4.35 7.50001 4.35H3.90001C3.72203 4.35004 3.54806 4.40284 3.4001 4.50174C3.25213 4.60063 3.1368 4.74118 3.0687 4.90561C3.0006 5.07004 2.98277 5.25097 3.01748 5.42553C3.05219 5.60009 3.13788 5.76043 3.26371 5.8863L4.46071 7.0833C3.50531 8.54494 2.99763 10.2538 3.00001 12C3.00001 16.9707 7.02931 21 12 21C16.9707 21 21 16.9707 21 12C21 7.0293 16.9707 3 12 3Z" fill="#152550"/>
</svg>
