<svg width="80" height="80" viewBox="0 0 80 80" fill="none" xmlns="http://www.w3.org/2000/svg">
<path d="M39.9994 56.6668C40.9438 56.6668 41.736 56.3467 42.376 55.7067C43.016 55.0667 43.3349 54.2756 43.3327 53.3334C43.3305 52.3912 43.0105 51.6001 42.3727 50.9601C41.7349 50.3201 40.9438 50.0001 39.9994 50.0001C39.0549 50.0001 38.2638 50.3201 37.626 50.9601C36.9882 51.6001 36.6682 52.3912 36.666 53.3334C36.6638 54.2756 36.9838 55.0679 37.626 55.7101C38.2682 56.3523 39.0594 56.6712 39.9994 56.6668ZM39.9994 43.3334C40.9438 43.3334 41.736 43.0134 42.376 42.3734C43.016 41.7334 43.3349 40.9423 43.3327 40.0001V26.6667C43.3327 25.7223 43.0127 24.9312 42.3727 24.2934C41.7327 23.6556 40.9416 23.3356 39.9994 23.3334C39.0571 23.3312 38.266 23.6512 37.626 24.2934C36.986 24.9356 36.666 25.7267 36.666 26.6667V40.0001C36.666 40.9445 36.986 41.7368 37.626 42.3768C38.266 43.0168 39.0571 43.3356 39.9994 43.3334ZM39.9994 73.3334C35.3882 73.3334 31.0549 72.4579 26.9994 70.7067C22.9438 68.9556 19.416 66.5812 16.416 63.5834C13.416 60.5856 11.0416 57.0579 9.29269 53.0001C7.5438 48.9423 6.66824 44.609 6.66602 40.0001C6.6638 35.3912 7.53935 31.0579 9.29269 27.0001C11.046 22.9423 13.4205 19.4145 16.416 16.4167C19.4116 13.419 22.9394 11.0445 26.9994 9.29342C31.0594 7.5423 35.3927 6.66675 39.9994 6.66675C44.606 6.66675 48.9394 7.5423 52.9994 9.29342C57.0593 11.0445 60.5871 13.419 63.5827 16.4167C66.5782 19.4145 68.9538 22.9423 70.7094 27.0001C72.4649 31.0579 73.3394 35.3912 73.3327 40.0001C73.326 44.609 72.4505 48.9423 70.706 53.0001C68.9616 57.0579 66.5871 60.5856 63.5827 63.5834C60.5782 66.5812 57.0505 68.9567 52.9994 70.7101C48.9482 72.4634 44.6149 73.3379 39.9994 73.3334ZM39.9994 66.6668C47.4438 66.6668 53.7493 64.0834 58.916 58.9167C64.0827 53.7501 66.666 47.4445 66.666 40.0001C66.666 32.5556 64.0827 26.2501 58.916 21.0834C53.7493 15.9167 47.4438 13.3334 39.9994 13.3334C32.5549 13.3334 26.2494 15.9167 21.0827 21.0834C15.916 26.2501 13.3327 32.5556 13.3327 40.0001C13.3327 47.4445 15.916 53.7501 21.0827 58.9167C26.2494 64.0834 32.5549 66.6668 39.9994 66.6668Z" fill="black"/>
</svg>
